<mxfile host="app.diagrams.net" agent="Mozilla/5.0 (Windows NT 10.0; Win64; x64) AppleWebKit/537.36 (KHTML, like Gecko) Chrome/132.0.0.0 Safari/537.36" version="24.7.17">
  <diagram name="Current" id="gAfq713w-tOX-155D2GU">
    <mxGraphModel dx="1434" dy="738" grid="1" gridSize="10" guides="1" tooltips="1" connect="1" arrows="1" fold="1" page="1" pageScale="1" pageWidth="850" pageHeight="1100" math="0" shadow="0">
      <root>
        <mxCell id="0" />
        <mxCell id="1" parent="0" />
        <mxCell id="vl1iALryFg6FQF2gkpKz-39" value="" style="rounded=0;whiteSpace=wrap;html=1;fillColor=#f5f5f5;fontColor=#333333;strokeColor=#666666;" vertex="1" parent="1">
          <mxGeometry x="390" y="740" width="330" height="220" as="geometry" />
        </mxCell>
        <mxCell id="vl1iALryFg6FQF2gkpKz-2" value="User" style="shape=umlActor;verticalLabelPosition=bottom;verticalAlign=top;html=1;outlineConnect=0;" vertex="1" parent="1">
          <mxGeometry x="80" y="80" width="30" height="60" as="geometry" />
        </mxCell>
        <mxCell id="vl1iALryFg6FQF2gkpKz-13" style="edgeStyle=orthogonalEdgeStyle;rounded=0;orthogonalLoop=1;jettySize=auto;html=1;exitX=0.5;exitY=0.5;exitDx=0;exitDy=0;exitPerimeter=0;entryX=0;entryY=0.75;entryDx=0;entryDy=0;startArrow=classicThin;startFill=1;" edge="1" parent="1" source="vl1iALryFg6FQF2gkpKz-3" target="vl1iALryFg6FQF2gkpKz-9">
          <mxGeometry relative="1" as="geometry" />
        </mxCell>
        <mxCell id="vl1iALryFg6FQF2gkpKz-16" value="Maintains Jokes" style="edgeLabel;html=1;align=center;verticalAlign=middle;resizable=0;points=[];" vertex="1" connectable="0" parent="vl1iALryFg6FQF2gkpKz-13">
          <mxGeometry x="-0.1429" y="3" relative="1" as="geometry">
            <mxPoint as="offset" />
          </mxGeometry>
        </mxCell>
        <mxCell id="vl1iALryFg6FQF2gkpKz-3" value="Admin" style="shape=umlActor;verticalLabelPosition=bottom;verticalAlign=top;html=1;outlineConnect=0;" vertex="1" parent="1">
          <mxGeometry x="80" y="200" width="30" height="60" as="geometry" />
        </mxCell>
        <mxCell id="vl1iALryFg6FQF2gkpKz-5" value="DB" style="shape=datastore;whiteSpace=wrap;html=1;" vertex="1" parent="1">
          <mxGeometry x="490" y="150" width="60" height="60" as="geometry" />
        </mxCell>
        <mxCell id="vl1iALryFg6FQF2gkpKz-14" style="edgeStyle=orthogonalEdgeStyle;rounded=0;orthogonalLoop=1;jettySize=auto;html=1;exitX=1;exitY=0.5;exitDx=0;exitDy=0;entryX=0;entryY=0.5;entryDx=0;entryDy=0;startArrow=classicThin;startFill=1;" edge="1" parent="1" source="vl1iALryFg6FQF2gkpKz-9" target="vl1iALryFg6FQF2gkpKz-5">
          <mxGeometry relative="1" as="geometry" />
        </mxCell>
        <mxCell id="vl1iALryFg6FQF2gkpKz-9" value="JOTD" style="rounded=1;whiteSpace=wrap;html=1;" vertex="1" parent="1">
          <mxGeometry x="270" y="150" width="120" height="60" as="geometry" />
        </mxCell>
        <mxCell id="vl1iALryFg6FQF2gkpKz-12" style="edgeStyle=orthogonalEdgeStyle;rounded=0;orthogonalLoop=1;jettySize=auto;html=1;exitX=0.25;exitY=0;exitDx=0;exitDy=0;entryX=0.5;entryY=0.5;entryDx=0;entryDy=0;entryPerimeter=0;" edge="1" parent="1" source="vl1iALryFg6FQF2gkpKz-9" target="vl1iALryFg6FQF2gkpKz-2">
          <mxGeometry relative="1" as="geometry">
            <Array as="points">
              <mxPoint x="300" y="130" />
              <mxPoint x="190" y="130" />
              <mxPoint x="190" y="110" />
            </Array>
          </mxGeometry>
        </mxCell>
        <mxCell id="vl1iALryFg6FQF2gkpKz-15" value="Reads Joke" style="edgeLabel;html=1;align=center;verticalAlign=middle;resizable=0;points=[];" vertex="1" connectable="0" parent="vl1iALryFg6FQF2gkpKz-12">
          <mxGeometry x="-0.0449" y="3" relative="1" as="geometry">
            <mxPoint as="offset" />
          </mxGeometry>
        </mxCell>
        <mxCell id="vl1iALryFg6FQF2gkpKz-17" value="" style="endArrow=none;dashed=1;html=1;rounded=0;" edge="1" parent="1">
          <mxGeometry width="50" height="50" relative="1" as="geometry">
            <mxPoint x="30" y="360" as="sourcePoint" />
            <mxPoint x="830" y="360" as="targetPoint" />
          </mxGeometry>
        </mxCell>
        <mxCell id="vl1iALryFg6FQF2gkpKz-18" value="User" style="shape=umlActor;verticalLabelPosition=bottom;verticalAlign=top;html=1;outlineConnect=0;" vertex="1" parent="1">
          <mxGeometry x="90" y="450" width="30" height="60" as="geometry" />
        </mxCell>
        <mxCell id="vl1iALryFg6FQF2gkpKz-19" style="edgeStyle=orthogonalEdgeStyle;rounded=0;orthogonalLoop=1;jettySize=auto;html=1;exitX=0.5;exitY=0.5;exitDx=0;exitDy=0;exitPerimeter=0;entryX=0;entryY=0.75;entryDx=0;entryDy=0;startArrow=classicThin;startFill=1;" edge="1" parent="1" source="vl1iALryFg6FQF2gkpKz-21" target="vl1iALryFg6FQF2gkpKz-24">
          <mxGeometry relative="1" as="geometry" />
        </mxCell>
        <mxCell id="vl1iALryFg6FQF2gkpKz-20" value="Maintains Jokes" style="edgeLabel;html=1;align=center;verticalAlign=middle;resizable=0;points=[];" vertex="1" connectable="0" parent="vl1iALryFg6FQF2gkpKz-19">
          <mxGeometry x="-0.1429" y="3" relative="1" as="geometry">
            <mxPoint as="offset" />
          </mxGeometry>
        </mxCell>
        <mxCell id="vl1iALryFg6FQF2gkpKz-21" value="Admin" style="shape=umlActor;verticalLabelPosition=bottom;verticalAlign=top;html=1;outlineConnect=0;" vertex="1" parent="1">
          <mxGeometry x="90" y="570" width="30" height="60" as="geometry" />
        </mxCell>
        <mxCell id="vl1iALryFg6FQF2gkpKz-22" value="DB" style="shape=datastore;whiteSpace=wrap;html=1;" vertex="1" parent="1">
          <mxGeometry x="570" y="520" width="60" height="60" as="geometry" />
        </mxCell>
        <mxCell id="vl1iALryFg6FQF2gkpKz-23" style="edgeStyle=orthogonalEdgeStyle;rounded=0;orthogonalLoop=1;jettySize=auto;html=1;exitX=1;exitY=0.5;exitDx=0;exitDy=0;entryX=0;entryY=0.5;entryDx=0;entryDy=0;startArrow=classicThin;startFill=1;" edge="1" parent="1" source="vl1iALryFg6FQF2gkpKz-24" target="vl1iALryFg6FQF2gkpKz-22">
          <mxGeometry relative="1" as="geometry" />
        </mxCell>
        <mxCell id="vl1iALryFg6FQF2gkpKz-24" value="JOTD" style="rounded=1;whiteSpace=wrap;html=1;" vertex="1" parent="1">
          <mxGeometry x="280" y="520" width="120" height="60" as="geometry" />
        </mxCell>
        <mxCell id="vl1iALryFg6FQF2gkpKz-25" style="edgeStyle=orthogonalEdgeStyle;rounded=0;orthogonalLoop=1;jettySize=auto;html=1;exitX=0.25;exitY=0;exitDx=0;exitDy=0;entryX=0.5;entryY=0.5;entryDx=0;entryDy=0;entryPerimeter=0;" edge="1" parent="1" source="vl1iALryFg6FQF2gkpKz-24" target="vl1iALryFg6FQF2gkpKz-18">
          <mxGeometry relative="1" as="geometry">
            <Array as="points">
              <mxPoint x="310" y="500" />
              <mxPoint x="200" y="500" />
              <mxPoint x="200" y="480" />
            </Array>
          </mxGeometry>
        </mxCell>
        <mxCell id="vl1iALryFg6FQF2gkpKz-26" value="Reads Joke" style="edgeLabel;html=1;align=center;verticalAlign=middle;resizable=0;points=[];" vertex="1" connectable="0" parent="vl1iALryFg6FQF2gkpKz-25">
          <mxGeometry x="-0.0449" y="3" relative="1" as="geometry">
            <mxPoint as="offset" />
          </mxGeometry>
        </mxCell>
        <mxCell id="vl1iALryFg6FQF2gkpKz-27" value="Cache" style="shape=cylinder3;whiteSpace=wrap;html=1;boundedLbl=1;backgroundOutline=1;size=15;" vertex="1" parent="1">
          <mxGeometry x="310" y="380" width="60" height="80" as="geometry" />
        </mxCell>
        <mxCell id="vl1iALryFg6FQF2gkpKz-28" style="edgeStyle=orthogonalEdgeStyle;rounded=0;orthogonalLoop=1;jettySize=auto;html=1;exitX=0.5;exitY=0;exitDx=0;exitDy=0;entryX=0.5;entryY=1;entryDx=0;entryDy=0;entryPerimeter=0;startArrow=classic;startFill=1;" edge="1" parent="1" source="vl1iALryFg6FQF2gkpKz-24" target="vl1iALryFg6FQF2gkpKz-27">
          <mxGeometry relative="1" as="geometry" />
        </mxCell>
        <mxCell id="vl1iALryFg6FQF2gkpKz-31" value="" style="endArrow=none;dashed=1;html=1;rounded=0;" edge="1" parent="1">
          <mxGeometry width="50" height="50" relative="1" as="geometry">
            <mxPoint x="40" y="720" as="sourcePoint" />
            <mxPoint x="840" y="720" as="targetPoint" />
          </mxGeometry>
        </mxCell>
        <mxCell id="vl1iALryFg6FQF2gkpKz-32" value="Read JOTD" style="rounded=1;whiteSpace=wrap;html=1;" vertex="1" parent="1">
          <mxGeometry x="410" y="760" width="120" height="60" as="geometry" />
        </mxCell>
        <mxCell id="vl1iALryFg6FQF2gkpKz-33" value="Cache" style="shape=cylinder3;whiteSpace=wrap;html=1;boundedLbl=1;backgroundOutline=1;size=15;" vertex="1" parent="1">
          <mxGeometry x="630" y="750" width="60" height="80" as="geometry" />
        </mxCell>
        <mxCell id="vl1iALryFg6FQF2gkpKz-34" style="edgeStyle=orthogonalEdgeStyle;rounded=0;orthogonalLoop=1;jettySize=auto;html=1;exitX=1;exitY=0.5;exitDx=0;exitDy=0;entryX=0;entryY=0.5;entryDx=0;entryDy=0;entryPerimeter=0;startArrow=classic;startFill=1;" edge="1" parent="1" source="vl1iALryFg6FQF2gkpKz-32" target="vl1iALryFg6FQF2gkpKz-33">
          <mxGeometry relative="1" as="geometry" />
        </mxCell>
        <mxCell id="vl1iALryFg6FQF2gkpKz-35" value="Read JOTD" style="rounded=1;whiteSpace=wrap;html=1;" vertex="1" parent="1">
          <mxGeometry x="415" y="870" width="120" height="60" as="geometry" />
        </mxCell>
        <mxCell id="vl1iALryFg6FQF2gkpKz-36" value="Cache" style="shape=cylinder3;whiteSpace=wrap;html=1;boundedLbl=1;backgroundOutline=1;size=15;" vertex="1" parent="1">
          <mxGeometry x="635" y="860" width="60" height="80" as="geometry" />
        </mxCell>
        <mxCell id="vl1iALryFg6FQF2gkpKz-37" style="edgeStyle=orthogonalEdgeStyle;rounded=0;orthogonalLoop=1;jettySize=auto;html=1;exitX=1;exitY=0.5;exitDx=0;exitDy=0;entryX=0;entryY=0.5;entryDx=0;entryDy=0;entryPerimeter=0;startArrow=classic;startFill=1;" edge="1" parent="1" source="vl1iALryFg6FQF2gkpKz-35" target="vl1iALryFg6FQF2gkpKz-36">
          <mxGeometry relative="1" as="geometry" />
        </mxCell>
        <mxCell id="vl1iALryFg6FQF2gkpKz-42" style="edgeStyle=orthogonalEdgeStyle;rounded=0;orthogonalLoop=1;jettySize=auto;html=1;exitX=1;exitY=0.5;exitDx=0;exitDy=0;entryX=0;entryY=0.5;entryDx=0;entryDy=0;startArrow=classic;startFill=1;" edge="1" parent="1" source="vl1iALryFg6FQF2gkpKz-41" target="vl1iALryFg6FQF2gkpKz-39">
          <mxGeometry relative="1" as="geometry" />
        </mxCell>
        <mxCell id="vl1iALryFg6FQF2gkpKz-41" value="Load Balancer" style="rounded=1;whiteSpace=wrap;html=1;" vertex="1" parent="1">
          <mxGeometry x="220" y="740" width="120" height="220" as="geometry" />
        </mxCell>
        <mxCell id="vl1iALryFg6FQF2gkpKz-44" style="edgeStyle=orthogonalEdgeStyle;rounded=0;orthogonalLoop=1;jettySize=auto;html=1;exitX=0.5;exitY=0.5;exitDx=0;exitDy=0;exitPerimeter=0;entryX=0;entryY=0.5;entryDx=0;entryDy=0;startArrow=classic;startFill=1;endArrow=none;endFill=0;" edge="1" parent="1" source="vl1iALryFg6FQF2gkpKz-43" target="vl1iALryFg6FQF2gkpKz-41">
          <mxGeometry relative="1" as="geometry" />
        </mxCell>
        <mxCell id="vl1iALryFg6FQF2gkpKz-43" value="User" style="shape=umlActor;verticalLabelPosition=bottom;verticalAlign=top;html=1;outlineConnect=0;" vertex="1" parent="1">
          <mxGeometry x="100" y="820" width="30" height="60" as="geometry" />
        </mxCell>
        <mxCell id="vl1iALryFg6FQF2gkpKz-46" style="edgeStyle=orthogonalEdgeStyle;rounded=0;orthogonalLoop=1;jettySize=auto;html=1;exitX=0.5;exitY=0;exitDx=0;exitDy=0;entryX=0.5;entryY=1;entryDx=0;entryDy=0;startArrow=classic;startFill=1;" edge="1" parent="1" source="vl1iALryFg6FQF2gkpKz-45" target="vl1iALryFg6FQF2gkpKz-39">
          <mxGeometry relative="1" as="geometry" />
        </mxCell>
        <mxCell id="vl1iALryFg6FQF2gkpKz-48" style="edgeStyle=orthogonalEdgeStyle;rounded=0;orthogonalLoop=1;jettySize=auto;html=1;exitX=1;exitY=0.5;exitDx=0;exitDy=0;entryX=0;entryY=0.5;entryDx=0;entryDy=0;startArrow=classic;startFill=1;" edge="1" parent="1" source="vl1iALryFg6FQF2gkpKz-45" target="vl1iALryFg6FQF2gkpKz-47">
          <mxGeometry relative="1" as="geometry" />
        </mxCell>
        <mxCell id="vl1iALryFg6FQF2gkpKz-45" value="JOTD Admin" style="rounded=1;whiteSpace=wrap;html=1;" vertex="1" parent="1">
          <mxGeometry x="415" y="1020" width="120" height="60" as="geometry" />
        </mxCell>
        <mxCell id="vl1iALryFg6FQF2gkpKz-47" value="DB" style="shape=datastore;whiteSpace=wrap;html=1;" vertex="1" parent="1">
          <mxGeometry x="635" y="1020" width="60" height="60" as="geometry" />
        </mxCell>
        <mxCell id="vl1iALryFg6FQF2gkpKz-50" style="edgeStyle=orthogonalEdgeStyle;rounded=0;orthogonalLoop=1;jettySize=auto;html=1;exitX=0.5;exitY=0.5;exitDx=0;exitDy=0;exitPerimeter=0;startArrow=classic;startFill=1;" edge="1" parent="1" source="vl1iALryFg6FQF2gkpKz-49" target="vl1iALryFg6FQF2gkpKz-45">
          <mxGeometry relative="1" as="geometry" />
        </mxCell>
        <mxCell id="vl1iALryFg6FQF2gkpKz-49" value="Admin" style="shape=umlActor;verticalLabelPosition=bottom;verticalAlign=top;html=1;outlineConnect=0;" vertex="1" parent="1">
          <mxGeometry x="100" y="1010" width="30" height="60" as="geometry" />
        </mxCell>
      </root>
    </mxGraphModel>
  </diagram>
</mxfile>
